<mxfile host="app.diagrams.net" modified="2024-01-21T21:34:56.592Z" agent="Mozilla/5.0 (Windows NT 10.0; Win64; x64) AppleWebKit/537.36 (KHTML, like Gecko) Chrome/120.0.0.0 Safari/537.36" etag="p_cdcvm4_ZiMtWM7mPdS" version="22.1.21" type="github">
  <diagram name="Page-1" id="VXtNGIWzz0i97T_DtU3W">
    <mxGraphModel dx="1434" dy="772" grid="1" gridSize="10" guides="1" tooltips="1" connect="1" arrows="1" fold="1" page="1" pageScale="1" pageWidth="827" pageHeight="1169" math="0" shadow="0">
      <root>
        <mxCell id="0" />
        <mxCell id="1" parent="0" />
        <mxCell id="yugVjjV_UeTPimWIvTRu-3" value="" style="edgeStyle=orthogonalEdgeStyle;rounded=0;orthogonalLoop=1;jettySize=auto;html=1;" edge="1" parent="1" source="yugVjjV_UeTPimWIvTRu-1" target="yugVjjV_UeTPimWIvTRu-2">
          <mxGeometry relative="1" as="geometry">
            <Array as="points">
              <mxPoint x="280" y="70" />
            </Array>
          </mxGeometry>
        </mxCell>
        <mxCell id="yugVjjV_UeTPimWIvTRu-1" value="npm run dev" style="rounded=0;whiteSpace=wrap;html=1;" vertex="1" parent="1">
          <mxGeometry x="40" y="40" width="120" height="60" as="geometry" />
        </mxCell>
        <mxCell id="yugVjjV_UeTPimWIvTRu-5" value="" style="edgeStyle=orthogonalEdgeStyle;rounded=0;orthogonalLoop=1;jettySize=auto;html=1;" edge="1" parent="1" source="yugVjjV_UeTPimWIvTRu-2" target="yugVjjV_UeTPimWIvTRu-4">
          <mxGeometry relative="1" as="geometry" />
        </mxCell>
        <mxCell id="yugVjjV_UeTPimWIvTRu-2" value="connection database" style="rounded=0;whiteSpace=wrap;html=1;" vertex="1" parent="1">
          <mxGeometry x="200" y="40" width="120" height="60" as="geometry" />
        </mxCell>
        <mxCell id="yugVjjV_UeTPimWIvTRu-4" value="Loader" style="rounded=0;whiteSpace=wrap;html=1;" vertex="1" parent="1">
          <mxGeometry x="360" y="40" width="120" height="60" as="geometry" />
        </mxCell>
      </root>
    </mxGraphModel>
  </diagram>
</mxfile>
